<?xml version="1.0" encoding="UTF-8" standalone="no"?>
<!-- Created with Inkscape (http://www.inkscape.org/) -->

<svg
   width="300"
   height="300"
   viewBox="0 0 79.374999 79.374999"
   version="1.1"
   id="svg513"
   inkscape:version="1.3 (0e150ed6c4, 2023-07-21)"
   sodipodi:docname="search_icon.svg"
   xmlns:inkscape="http://www.inkscape.org/namespaces/inkscape"
   xmlns:sodipodi="http://sodipodi.sourceforge.net/DTD/sodipodi-0.dtd"
   xmlns="http://www.w3.org/2000/svg"
   xmlns:svg="http://www.w3.org/2000/svg">
  <sodipodi:namedview
     id="namedview515"
     pagecolor="#ffffff"
     bordercolor="#666666"
     borderopacity="1.0"
     inkscape:showpageshadow="2"
     inkscape:pageopacity="0.0"
     inkscape:pagecheckerboard="0"
     inkscape:deskcolor="#d1d1d1"
     inkscape:document-units="mm"
     showgrid="false"
     inkscape:zoom="1.1893044"
     inkscape:cx="238.37463"
     inkscape:cy="123.18125"
     inkscape:window-width="1366"
     inkscape:window-height="699"
     inkscape:window-x="0"
     inkscape:window-y="0"
     inkscape:window-maximized="1"
     inkscape:current-layer="g1933" />
  <defs
     id="defs510" />
  <g
     inkscape:label="Layer 1"
     inkscape:groupmode="layer"
     id="layer1">
    <g
       id="g1933"
       transform="translate(0.35455925,0.52326141)">
      <path
         id="path17367"
         style="fill:#000000;fill-opacity:1;stroke:#000000;stroke-width:1.4189;stroke-linecap:round;stroke-dasharray:none;stroke-opacity:1"
         d="M 28.700842,0.70945001 A 28.150159,28.150159 0 0 0 0.55058228,28.859721 28.150159,28.150159 0 0 0 28.700842,57.009979 28.150159,28.150159 0 0 0 56.851097,28.859721 28.150159,28.150159 0 0 0 28.700842,0.70945001 Z m 0,10.30382499 A 17.846529,17.846529 0 0 1 46.547273,28.859721 17.846529,17.846529 0 0 1 28.700842,46.706154 17.846529,17.846529 0 0 1 10.854411,28.859721 17.846529,17.846529 0 0 1 28.700842,11.013275 Z" />
      <rect
         style="fill:#000000;fill-opacity:1;stroke:#000000;stroke-width:1.31704;stroke-linecap:round;stroke-dasharray:none;stroke-opacity:1"
         id="rect17424"
         width="49.562965"
         height="9.1399822"
         x="59.662315"
         y="-4.9209085"
         ry="4.5699911"
         transform="rotate(45)" />
    </g>
  </g>
</svg>
